<?xml version="1.0" encoding="utf-8"?>
<!-- Generator: Adobe Illustrator 21.1.0, SVG Export Plug-In . SVG Version: 6.00 Build 0)  -->
<svg version="1.1" id="Layer_1" xmlns="http://www.w3.org/2000/svg" xmlns:xlink="http://www.w3.org/1999/xlink" x="0px" y="0px"
	 viewBox="0 0 179.2 192.7" style="enable-background:new 0 0 179.2 192.7;" xml:space="preserve">
<style type="text/css">
	.st0{fill:#448AFF;}
	.st1{fill:#2979FF;}
	.st2{fill:#FFFFFF;}
	.st3{fill:#A2C5FF;}
</style>
<g>
	<g>
		<polygon class="st0" points="89.2,25.3 89.2,5.1 4.9,35.5 17.7,147.6 89.2,187.6 89.2,117.5 		"/>
		<polygon class="st1" points="89.2,5.1 89.2,25.3 89.2,117.5 89.2,187.6 161.2,147.6 174.3,35.5 		"/>
	</g>
	<path class="st2" d="M122.6,124.8l-20.7-70.5c8.1-4.5,13.5-13.1,13.5-23c0-14.5-11.7-26.2-26.2-26.2S63,16.8,63,31.3
		c0,9.6,5.1,17.9,12.8,22.5l-19.9,70.9H122.6z"/>
	<circle class="st3" cx="88.6" cy="30.8" r="20.9"/>
	<polygon class="st3" points="83.5,49.3 67.7,116.6 111.7,116.6 94,49.3 	"/>
</g>
<polygon class="st2" points="4.9,42.9 35.9,31.7 35.9,40.2 5.7,50.9 "/>
<polygon class="st2" points="4.9,58 35.9,46.8 35.9,55.3 5.7,65.9 "/>
<polygon class="st2" points="4.9,72.8 35.9,61.7 35.9,70.1 5.7,80.8 "/>
<g>
	<polygon class="st2" points="174.3,43 143.3,31.8 143.3,40.3 173.5,51 	"/>
	<polygon class="st2" points="174.3,58 143.3,46.9 143.3,55.4 173.5,66 	"/>
	<polygon class="st2" points="174.3,72.9 143.3,61.8 143.3,70.2 173.5,80.9 	"/>
</g>
</svg>
